<svg width="20" height="20" viewBox="0 0 20 20" fill="none" xmlns="http://www.w3.org/2000/svg">
<path d="M14.8253 18.95H5.17533C2.89199 18.95 1.04199 17.0917 1.04199 14.8083V8.63333C1.04199 7.5 1.74199 6.075 2.64199 5.375L7.13366 1.875C8.48366 0.825001 10.642 0.775001 12.042 1.75833L17.192 5.36667C18.1837 6.05833 18.9587 7.54167 18.9587 8.75V14.8167C18.9587 17.0917 17.1087 18.95 14.8253 18.95ZM7.90033 2.85833L3.40866 6.35833C2.81699 6.825 2.29199 7.88333 2.29199 8.63333V14.8083C2.29199 16.4 3.58366 17.7 5.17533 17.7H14.8253C16.417 17.7 17.7087 16.4083 17.7087 14.8167V8.75C17.7087 7.95 17.1337 6.84167 16.4753 6.39167L11.3253 2.78333C10.3753 2.11667 8.80866 2.15 7.90033 2.85833Z" fill="#333333"/>
<path d="M11.25 15.625H8.75C7.025 15.625 5.625 14.225 5.625 12.5V10C5.625 8.275 7.025 6.875 8.75 6.875H11.25C12.975 6.875 14.375 8.275 14.375 10V12.5C14.375 14.225 12.975 15.625 11.25 15.625ZM8.75 8.125C7.71667 8.125 6.875 8.96667 6.875 10V12.5C6.875 13.5333 7.71667 14.375 8.75 14.375H11.25C12.2833 14.375 13.125 13.5333 13.125 12.5V10C13.125 8.96667 12.2833 8.125 11.25 8.125H8.75Z" fill="#333333"/>
<path d="M10 15.625C9.65833 15.625 9.375 15.3417 9.375 15V7.5C9.375 7.15833 9.65833 6.875 10 6.875C10.3417 6.875 10.625 7.15833 10.625 7.5V15C10.625 15.3417 10.3417 15.625 10 15.625Z" fill="#333333"/>
<path d="M13.75 11.875H6.25C5.90833 11.875 5.625 11.5917 5.625 11.25C5.625 10.9083 5.90833 10.625 6.25 10.625H13.75C14.0917 10.625 14.375 10.9083 14.375 11.25C14.375 11.5917 14.0917 11.875 13.75 11.875Z" fill="#333333"/>
</svg>
