<?xml version="1.0" encoding="UTF-8"?>
<!DOCTYPE svg PUBLIC "-//W3C//DTD SVG 1.1//EN" "http://www.w3.org/Graphics/SVG/1.1/DTD/svg11.dtd">
<svg xmlns="http://www.w3.org/2000/svg" version="1.1" width="24px" height="24px" style="shape-rendering:geometricPrecision; text-rendering:geometricPrecision; image-rendering:optimizeQuality; fill-rule:evenodd; clip-rule:evenodd" xmlns:xlink="http://www.w3.org/1999/xlink">
<g><path style="opacity:0.71" fill="#344e87" d="M 9.5,23.5 C 8.83333,23.5 8.16667,23.5 7.5,23.5C 7.18897,22.5222 6.5223,21.8555 5.5,21.5C 3.92908,22.3094 2.26241,22.6427 0.5,22.5C 0.333749,15.825 0.500416,9.15835 1,2.5C 1.5,2 2,1.5 2.5,1C 8.5,0.333333 14.5,0.333333 20.5,1C 22.5037,3.84077 23.0037,7.00743 22,10.5C 20.3005,11.4061 18.4672,11.7394 16.5,11.5C 16.5,15.1667 16.5,18.8333 16.5,22.5C 14.7376,22.6427 13.0709,22.3094 11.5,21.5C 10.4777,21.8555 9.81103,22.5222 9.5,23.5 Z M 4.5,2.5 C 7.83333,2.5 11.1667,2.5 14.5,2.5C 14.8288,8.20555 14.4954,13.8722 13.5,19.5C 11.6017,18.2655 9.93504,18.5989 8.5,20.5C 7.06496,18.5989 5.39829,18.2655 3.5,19.5C 1.95845,13.5721 2.29178,7.90547 4.5,2.5 Z M 16.5,2.5 C 20.2635,3.38497 21.2635,5.55164 19.5,9C 18.552,9.48278 17.552,9.64945 16.5,9.5C 16.5,7.16667 16.5,4.83333 16.5,2.5 Z"/></g>
<g><path style="opacity:0.875" fill="#354f88" d="M 4.5,7.5 C 6.33702,7.63945 6.67036,8.30612 5.5,9.5C 4.70245,9.04311 4.36912,8.37644 4.5,7.5 Z"/></g>
<g><path style="opacity:0.646" fill="#344f88" d="M 7.5,7.5 C 9.28801,7.21478 10.9547,7.54811 12.5,8.5C 11.6667,8.83333 10.8333,9.16667 10,9.5C 8.62439,9.31577 7.79106,8.64911 7.5,7.5 Z"/></g>
<g><path style="opacity:0.875" fill="#354f88" d="M 4.5,11.5 C 6.33702,11.6395 6.67036,12.3061 5.5,13.5C 4.70245,13.0431 4.36912,12.3764 4.5,11.5 Z"/></g>
<g><path style="opacity:0.646" fill="#344f88" d="M 7.5,11.5 C 9.28801,11.2148 10.9547,11.5481 12.5,12.5C 11.6667,12.8333 10.8333,13.1667 10,13.5C 8.62439,13.3158 7.79106,12.6491 7.5,11.5 Z"/></g>
</svg>
