<svg width="24" height="22" viewBox="0 0 24 22" fill="none" xmlns="http://www.w3.org/2000/svg">
<path d="M20.9063 5H3.09374C2.76597 5 2.5 4.55195 2.5 4C2.5 3.44796 2.76602 3 3.09374 3H20.9063C21.234 3 21.5 3.44805 21.5 4C21.5 4.55195 21.234 5 20.9063 5Z" fill="#333333"/>
<path d="M3.09374 10H20.9063C21.234 10 21.5 10.448 21.5 11C21.5 11.552 21.234 12 20.9063 12H3.09374C2.76597 12 2.5 11.552 2.5 11C2.5 10.448 2.76597 10 3.09374 10Z" fill="#333333"/>
<path d="M8.88339 17H20.8992C21.2309 17 21.5 17.448 21.5 18C21.5 18.552 21.2308 19 20.8992 19H8.88339C8.55174 19 8.28261 18.552 8.28261 18C8.28256 17.448 8.55174 17 8.88339 17Z" fill="#333333"/>
</svg>
