<svg width="24" height="24" viewBox="0 0 24 24" fill="none" xmlns="http://www.w3.org/2000/svg">
<path d="M23.25 12.375H22.125C22.0427 12.375 21.9627 12.402 21.8973 12.452C21.8319 12.5019 21.7848 12.572 21.7631 12.6514L20.7135 16.5H19.875V15.375C19.875 15.2755 19.8355 15.1802 19.7652 15.1098C19.6948 15.0395 19.5995 15 19.5 15V13.875C19.5 13.7755 19.4605 13.6802 19.3902 13.6098C19.3198 13.5395 19.2245 13.5 19.125 13.5H13.875C13.7755 13.5 13.6802 13.5395 13.6098 13.6098C13.5395 13.6802 13.5 13.7755 13.5 13.875V15C13.4005 15 13.3052 15.0395 13.2348 15.1098C13.1645 15.1802 13.125 15.2755 13.125 15.375V16.5H0.75C0.650544 16.5 0.555161 16.5395 0.484835 16.6098C0.414509 16.6802 0.375 16.7755 0.375 16.875V19.125C0.375 19.2245 0.414509 19.3198 0.484835 19.3902C0.555161 19.4605 0.650544 19.5 0.75 19.5H1.5V23.625H2.25V19.5H21.75V23.625H22.5V19.5H23.25C23.3495 19.5 23.4448 19.4605 23.5152 19.3902C23.5855 19.3198 23.625 19.2245 23.625 19.125V12.75C23.625 12.6505 23.5855 12.5552 23.5152 12.4848C23.4448 12.4145 23.3495 12.375 23.25 12.375ZM18.375 16.5V15.75H19.125V16.5H18.375ZM16.125 15.75V16.5H15.375V15.75H16.125ZM16.875 15.75H17.625V16.5H16.875V15.75ZM14.25 14.25H18.75V15H14.25V14.25ZM13.875 15.75H14.625V16.5H13.875V15.75ZM22.875 18.75H1.125V17.25H21C21.0823 17.25 21.1623 17.223 21.2277 17.173C21.2931 17.1231 21.3402 17.053 21.3619 16.9736L22.4115 13.125H22.875V18.75Z" fill="#333333"/>
<path d="M20.625 23.625V21.375C20.625 21.2755 20.5855 21.1802 20.5152 21.1098C20.4448 21.0395 20.3495 21 20.25 21H3.75C3.65054 21 3.55516 21.0395 3.48484 21.1098C3.41451 21.1802 3.375 21.2755 3.375 21.375V23.625H4.125V21.75H19.875V23.625H20.625ZM0.75 16.125H3C3.09946 16.125 3.19484 16.0855 3.26516 16.0152C3.33549 15.9448 3.375 15.8495 3.375 15.75V15.1635C4.50754 15.5526 5.69686 15.7508 6.89437 15.75H10.125C10.3215 15.75 10.5145 15.6986 10.6849 15.6008C10.8553 15.503 10.9971 15.3623 11.0962 15.1927C11.1954 15.0231 11.2484 14.8305 11.2499 14.6341C11.2515 14.4376 11.2016 14.2442 11.1053 14.073C11.3476 13.9183 11.5215 13.6766 11.5913 13.3976C11.661 13.1187 11.6213 12.8236 11.4803 12.573C11.7226 12.4183 11.8965 12.1766 11.9663 11.8976C12.036 11.6187 11.9963 11.3236 11.8553 11.073C12.0085 10.9759 12.1358 10.8429 12.2262 10.6856C12.3166 10.5283 12.3674 10.3514 12.3743 10.1701C12.3811 9.98875 12.3437 9.8085 12.2654 9.64484C12.1871 9.48119 12.0701 9.33903 11.9246 9.23063L13.3121 7.84313L13.5319 8.06288L13.4674 8.12738C13.2479 8.34688 13.1246 8.64458 13.1246 8.955C13.1246 9.26542 13.2479 9.56313 13.4674 9.78263C13.6869 10.0021 13.9846 10.1254 14.295 10.1254C14.6054 10.1254 14.9031 10.0021 15.1226 9.78263L18.4069 6.49838C18.5156 6.38969 18.6018 6.26066 18.6606 6.11866C18.7194 5.97666 18.7497 5.82446 18.7497 5.67075C18.7497 5.51705 18.7194 5.36485 18.6606 5.22285C18.6018 5.08084 18.5156 4.95181 18.4069 4.84313C18.2982 4.73444 18.1692 4.64823 18.0272 4.58941C17.8852 4.53059 17.733 4.50031 17.5793 4.50031C17.4255 4.50031 17.2733 4.53059 17.1313 4.58941C16.9893 4.64823 16.8603 4.73444 16.7516 4.84313L16.6871 4.90763L14.2178 2.4375L14.2822 2.373C14.5017 2.1535 14.6251 1.8558 14.6251 1.54538C14.6251 1.23496 14.5017 0.937252 14.2822 0.717753C14.0627 0.498253 13.765 0.374939 13.4546 0.374939C13.1442 0.374939 12.8465 0.498253 12.627 0.717753L9.34275 4.002C9.12325 4.2215 8.99994 4.51921 8.99994 4.82963C8.99994 5.14005 9.12325 5.43775 9.34275 5.65725C9.56225 5.87675 9.85996 6.00007 10.1704 6.00007C10.4808 6.00007 10.7785 5.87675 10.998 5.65725L11.0625 5.59275L11.2823 5.8125L9.51562 7.57913C9.34832 7.52868 9.17474 7.50204 9 7.5H7.52662C6.8742 7.49817 6.22789 7.6258 5.62513 7.87549C5.02237 8.12518 4.47514 8.49197 4.01512 8.95463C3.83743 9.13027 3.61667 9.2561 3.375 9.3195V9C3.375 8.90055 3.33549 8.80516 3.26516 8.73484C3.19484 8.66451 3.09946 8.625 3 8.625H0.75C0.650544 8.625 0.555161 8.66451 0.484835 8.73484C0.414509 8.80516 0.375 8.90055 0.375 9V15.75C0.375 15.8495 0.414509 15.9448 0.484835 16.0152C0.555161 16.0855 0.650544 16.125 0.75 16.125ZM17.5796 5.25C17.6628 5.24995 17.7441 5.27458 17.8133 5.32077C17.8825 5.36696 17.9364 5.43263 17.9682 5.50947C18.0001 5.58632 18.0084 5.67088 17.9922 5.75246C17.9759 5.83404 17.9358 5.90896 17.877 5.96775L14.5928 9.252C14.5139 9.33087 14.4069 9.37518 14.2954 9.37518C14.1838 9.37518 14.0769 9.33087 13.998 9.252C13.9191 9.17313 13.8748 9.06617 13.8748 8.95463C13.8748 8.84309 13.9191 8.73612 13.998 8.65725L17.2822 5.373C17.3213 5.33391 17.3676 5.30292 17.4187 5.28181C17.4697 5.2607 17.5244 5.24989 17.5796 5.25ZM10.1704 5.25C10.0872 5.25005 10.0059 5.22542 9.9367 5.17924C9.86752 5.13305 9.8136 5.06738 9.78176 4.99053C9.74993 4.91369 9.7416 4.82913 9.75784 4.74755C9.77408 4.66597 9.81416 4.59104 9.873 4.53225L13.1572 1.248C13.2361 1.16913 13.3431 1.12483 13.4546 1.12483C13.5662 1.12483 13.6731 1.16913 13.752 1.248C13.8309 1.32687 13.8752 1.43384 13.8752 1.54538C13.8752 1.65691 13.8309 1.76388 13.752 1.84275L10.4677 5.127C10.4287 5.1661 10.3824 5.19709 10.3313 5.2182C10.2803 5.23931 10.2256 5.25012 10.1704 5.25ZM13.6875 2.96775L16.1572 5.4375L14.0625 7.53225L11.5927 5.0625L13.6875 2.96775ZM11.8125 6.34275L12.7822 7.3125L11.0948 9H10.8375C10.7527 8.58803 10.5316 8.21666 10.2098 7.94588L11.8125 6.34275ZM4.54537 9.48488C4.93595 9.09212 5.40055 8.78075 5.91229 8.56878C6.42403 8.35681 6.97273 8.24846 7.52662 8.25H9C9.23185 8.25096 9.45774 8.32354 9.64676 8.45779C9.83579 8.59204 9.97872 8.78141 10.056 9H7.125V9.75H11.25C11.3495 9.75 11.4448 9.78951 11.5152 9.85984C11.5855 9.93016 11.625 10.0255 11.625 10.125C11.625 10.2245 11.5855 10.3198 11.5152 10.3902C11.4448 10.4605 11.3495 10.5 11.25 10.5H8.25V11.25H10.875C10.9745 11.25 11.0698 11.2895 11.1402 11.3598C11.2105 11.4302 11.25 11.5255 11.25 11.625C11.25 11.7245 11.2105 11.8198 11.1402 11.8902C11.0698 11.9605 10.9745 12 10.875 12H8.25V12.75H10.5C10.5995 12.75 10.6948 12.7895 10.7652 12.8598C10.8355 12.9302 10.875 13.0255 10.875 13.125C10.875 13.2245 10.8355 13.3198 10.7652 13.3902C10.6948 13.4605 10.5995 13.5 10.5 13.5H8.25V14.25H10.125C10.2245 14.25 10.3198 14.2895 10.3902 14.3598C10.4605 14.4302 10.5 14.5255 10.5 14.625C10.5 14.7245 10.4605 14.8198 10.3902 14.8902C10.3198 14.9605 10.2245 15 10.125 15H6.89437C5.69274 15 4.5008 14.7849 3.375 14.3648V10.0913C3.81857 10.0154 4.22759 9.8035 4.54537 9.48488ZM1.125 9.375H2.625V15.375H1.125V9.375Z" fill="#333333"/>
</svg>
